HIERARCHY
ROOT joint_0
{
	OFFSET 0.000000 0.000000 0.000000
	CHANNELS 6 Xposition Yposition Zposition Zrotation Yrotation Xrotation 
	JOINT joint_1
	{
		OFFSET 0.511002 1.944000 108.288940
		CHANNELS 3 Zrotation Yrotation Xrotation
		JOINT joint_2
		{
			OFFSET -9.074005 1.512993 98.440063
			CHANNELS 3 Zrotation Yrotation Xrotation
			JOINT joint_3
			{
				OFFSET -8.590996 1.815002 98.366943
				CHANNELS 3 Zrotation Yrotation Xrotation
				JOINT joint_4
				{
					OFFSET 2.489998 3.531998 136.462036
					CHANNELS 3 Zrotation Yrotation Xrotation
					JOINT joint_5
					{
						OFFSET 22.708000 2.955002 80.357056
						CHANNELS 3 Zrotation Yrotation Xrotation
						End Site
						{
							OFFSET 0.000000 0.000000 0.000000
						}
					}
				}
				JOINT joint_6
				{
					OFFSET 2.860001 -27.684998 77.234009
					CHANNELS 3 Zrotation Yrotation Xrotation
					JOINT joint_7
					{
						OFFSET 5.449997 -131.244003 -18.851929
						CHANNELS 3 Zrotation Yrotation Xrotation
						JOINT joint_8
						{
							OFFSET 35.757000 -24.661995 -264.074097
							CHANNELS 3 Zrotation Yrotation Xrotation
							JOINT joint_9
							{
								OFFSET 49.392001 -1.747002 -239.960938
								CHANNELS 3 Zrotation Yrotation Xrotation
								End Site
								{
									OFFSET 0.000000 0.000000 0.000000
								}
							}
						}
					}
				}
				JOINT joint_10
				{
					OFFSET -0.127998 31.625000 75.753052
					CHANNELS 3 Zrotation Yrotation Xrotation
					JOINT joint_11
					{
						OFFSET -5.618004 131.132996 -19.557007
						CHANNELS 3 Zrotation Yrotation Xrotation
						JOINT joint_12
						{
							OFFSET 46.488998 30.127991 -261.826050
							CHANNELS 3 Zrotation Yrotation Xrotation
							JOINT joint_13
							{
								OFFSET 66.021003 0.474030 -235.934937
								CHANNELS 3 Zrotation Yrotation Xrotation
								End Site
								{
									OFFSET 0.000000 0.000000 0.000000
								}
							}
						}
					}
				}
			}
		}
	}
	JOINT joint_14
	{
		OFFSET 15.887001 -78.871004 -94.561035
		CHANNELS 3 Zrotation Yrotation Xrotation
		JOINT joint_15
		{
			OFFSET -4.133003 6.714001 -473.615967
			CHANNELS 3 Zrotation Yrotation Xrotation
			JOINT joint_16
			{
				OFFSET -19.541000 5.340000 -399.613007
				CHANNELS 3 Zrotation Yrotation Xrotation
				JOINT joint_17
				{
					OFFSET 164.317001 41.657999 -73.195000
					CHANNELS 3 Zrotation Yrotation Xrotation
					End Site
					{
						OFFSET 0.000000 0.000000 0.000000
					}
				}
			}
		}
	}
	JOINT joint_18
	{
		OFFSET 6.513000 77.960991 -96.406982
		CHANNELS 3 Zrotation Yrotation Xrotation
		JOINT joint_19
		{
			OFFSET -10.660004 -8.518997 -473.485016
			CHANNELS 3 Zrotation Yrotation Xrotation
			JOINT joint_20
			{
				OFFSET -36.967995 -11.098999 -398.260010
				CHANNELS 3 Zrotation Yrotation Xrotation
				JOINT joint_21
				{
					OFFSET 166.067997 30.363998 -74.785000
					CHANNELS 3 Zrotation Yrotation Xrotation
					End Site
					{
						OFFSET 0.000000 0.000000 0.000000
					}
				}
			}
		}
	}
}
MOTION
Frames: 16
Frame Time: 0.016667
30.689000 113.783000 1070.057010 -3.714834 5.616734 1.872768 1.717643 4.388361 -0.768700 0.907024 -0.551532 0.143720 0.775644 0.891007 -0.143962 0.449414 -4.961073 -0.852640 0.000000 0.000000 0.000000 3.151394 -0.582849 -2.521329 -1.277877 0.028022 -4.275003 -0.097712 -6.691198 -0.473473 0.000000 0.000000 0.000000 -1.733181 1.242915 0.171164 1.243429 1.725303 1.132936 1.110126 -3.599360 3.869334 0.000000 0.000000 0.000000 -0.272075 -20.739163 -6.099637 2.061645 42.651109 -1.650915 0.671143 1.816251 -0.192211 0.000000 0.000000 0.000000 -2.820086 -4.612923 -0.423012 -2.627915 11.677487 -2.398497 -2.581840 -1.490891 -0.836005 0.000000 0.000000 0.000000 
35.802000 114.358000 1069.588010 -3.699939 5.195842 1.907452 1.796605 5.035348 -0.704057 0.639144 -0.640943 0.126916 0.476251 0.999452 -0.093305 0.453784 -4.835208 -0.871921 0.000000 0.000000 0.000000 3.189718 -0.804340 -2.473157 -1.340245 -0.189798 -4.528719 -0.116632 -7.197270 -0.577344 0.000000 0.000000 0.000000 -1.930337 1.126480 0.327788 1.264886 1.644016 1.254530 1.134824 -3.497305 3.935773 0.000000 0.000000 0.000000 -0.550232 -22.486206 -5.895463 2.356757 46.585065 -2.000248 0.930856 3.468823 -0.519402 0.000000 0.000000 0.000000 -2.863438 -3.984447 -0.491102 -2.660503 11.968371 -2.535551 -2.589435 -1.700355 -0.794371 0.000000 0.000000 0.000000 
41.090000 114.641000 1069.112060 -3.627025 4.816753 1.964750 1.873020 5.659206 -0.689310 0.369908 -0.742587 0.144195 0.167103 1.099371 -0.048052 0.459480 -4.728056 -0.894806 0.000000 0.000000 0.000000 3.198115 -1.012392 -2.386279 -1.389579 -0.401759 -4.758451 -0.135252 -7.613472 -0.687612 0.000000 0.000000 0.000000 -2.093081 0.981011 0.465726 1.281837 1.529747 1.394270 1.171304 -3.337591 4.046356 0.000000 0.000000 0.000000 -0.955084 -24.020966 -5.693851 2.474046 49.693937 -2.318431 0.849042 4.556589 -0.829247 0.000000 0.000000 0.000000 -2.889083 -3.486511 -0.585524 -2.708945 12.435962 -2.634752 -2.611674 -1.888286 -0.762935 0.000000 0.000000 0.000000 
46.590000 114.575000 1068.623050 -3.532297 4.514354 2.027024 1.937003 6.187296 -0.689508 0.130683 -0.840221 0.170999 -0.112279 1.192408 -0.016986 0.469081 -4.628904 -0.932191 0.000000 0.000000 0.000000 3.139777 -1.203831 -2.240784 -1.425028 -0.611685 -4.974401 -0.150707 -7.931636 -0.790179 0.000000 0.000000 0.000000 -2.208846 0.786162 0.567799 1.291694 1.362570 1.603235 1.213469 -3.064179 4.180956 0.000000 0.000000 0.000000 -1.466530 -25.329045 -5.486577 2.389006 52.013742 -2.556875 0.255449 4.522775 -1.024746 0.000000 0.000000 0.000000 -2.885875 -3.172553 -0.694906 -2.741984 13.125979 -2.685737 -2.618626 -2.056821 -0.728611 0.000000 0.000000 0.000000 
52.264000 114.218000 1068.126950 -3.450316 4.280501 2.067855 1.988419 6.636672 -0.662343 -0.074029 -0.924287 0.188538 -0.350748 1.281824 0.004705 0.480144 -4.551021 -0.973015 0.000000 0.000000 0.000000 3.050335 -1.380725 -2.060064 -1.448506 -0.814192 -5.163510 -0.167496 -8.161860 -0.904220 0.000000 0.000000 0.000000 -2.294543 0.559852 0.643532 1.297716 1.161086 1.836928 1.267989 -2.730759 4.359879 0.000000 0.000000 0.000000 -2.008853 -26.505393 -5.242757 2.184328 53.687556 -2.740600 -0.672790 3.684884 -1.122254 0.000000 0.000000 0.000000 -2.864905 -3.006852 -0.779855 -2.755784 13.987870 -2.712687 -2.610843 -2.209035 -0.691107 0.000000 0.000000 0.000000 
58.421000 113.676000 1067.916990 -3.435804 4.114048 2.083556 1.993455 6.969942 -0.588188 -0.213157 -0.985542 0.188564 -0.505837 1.352058 0.026815 0.494004 -4.469274 -1.024728 0.000000 0.000000 0.000000 2.988872 -1.511191 -1.905714 -1.459264 -0.964874 -5.293200 -0.193705 -8.248023 -1.064888 0.000000 0.000000 0.000000 -2.332680 0.374221 0.675353 1.311465 0.991857 1.989065 1.357977 -2.453952 4.658856 0.000000 0.000000 0.000000 -2.421052 -27.477612 -5.037224 1.928572 54.212886 -2.834609 -1.618999 2.652430 -1.182296 0.000000 0.000000 0.000000 -2.829155 -2.906030 -0.819574 -2.752605 14.867846 -2.750020 -2.608660 -2.212074 -0.683940 0.000000 0.000000 0.000000 
65.185000 113.051000 1068.162960 -3.502293 4.013740 2.072036 1.918349 7.179166 -0.455074 -0.271975 -1.031004 0.170752 -0.557266 1.399636 0.056828 0.512568 -4.371262 -1.095265 0.000000 0.000000 0.000000 2.988997 -1.583175 -1.800734 -1.459679 -1.045977 -5.373007 -0.233989 -8.148187 -1.289481 0.000000 0.000000 0.000000 -2.298868 0.250342 0.634673 1.340600 0.871308 1.992362 1.516723 -2.265819 5.187762 0.000000 0.000000 0.000000 -2.668904 -28.155675 -4.928040 1.575458 53.186127 -2.803048 -2.526653 1.724371 -1.276488 0.000000 0.000000 0.000000 -2.782378 -2.842882 -0.814827 -2.733692 15.714721 -2.797982 -2.625586 -2.002419 -0.724909 0.000000 0.000000 0.000000 
72.431000 112.241000 1068.694950 -3.626224 3.976666 2.040880 1.781775 7.282545 -0.285625 -0.264181 -1.059507 0.138581 -0.522923 1.430032 0.088192 0.534295 -4.271077 -1.177581 0.000000 0.000000 0.000000 3.018297 -1.609114 -1.724272 -1.450133 -1.075052 -5.394817 -0.286474 -7.904332 -1.566596 0.000000 0.000000 0.000000 -2.216280 0.163924 0.547232 1.379873 0.779754 1.910026 1.713755 -2.136807 5.841598 0.000000 0.000000 0.000000 -2.814960 -28.574105 -4.874550 1.100469 50.886475 -2.671095 -3.375101 0.838176 -1.383870 0.000000 0.000000 0.000000 -2.725081 -2.841625 -0.770531 -2.697217 16.575806 -2.855918 -2.656482 -1.631772 -0.802110 0.000000 0.000000 0.000000 
80.097000 111.041000 1069.292970 -3.813595 4.003196 2.001925 1.637511 7.279005 -0.120065 -0.197888 -1.054614 0.098295 -0.419556 1.442064 0.106348 0.554311 -4.180503 -1.253680 0.000000 0.000000 0.000000 3.033128 -1.592621 -1.670075 -1.427425 -1.060071 -5.299347 -0.350568 -7.584776 -1.893596 0.000000 0.000000 0.000000 -2.148933 0.122859 0.483629 1.421140 0.734320 1.825057 1.876409 -2.094191 6.376766 0.000000 0.000000 0.000000 -2.862713 -28.843813 -4.799224 0.585650 47.809471 -2.517386 -3.971745 0.043498 -1.443186 0.000000 0.000000 0.000000 -2.649609 -2.899620 -0.672603 -2.639094 17.446564 -2.960442 -2.692743 -1.147415 -0.902702 0.000000 0.000000 0.000000 
88.085000 109.351000 1070.037960 -4.054876 4.105588 1.970007 1.497995 7.188263 0.000235 -0.073081 -1.022042 0.064309 -0.253855 1.429221 0.108386 0.573792 -4.116613 -1.324928 0.000000 0.000000 0.000000 3.015719 -1.536203 -1.642679 -1.383656 -1.004036 -5.017453 -0.438010 -7.168094 -2.326225 0.000000 0.000000 0.000000 -2.122990 0.133097 0.482298 1.461388 0.743035 1.738094 1.985064 -2.173958 6.730308 0.000000 0.000000 0.000000 -2.798939 -28.950291 -4.704549 0.053855 43.756826 -2.323142 -4.222794 -0.340509 -1.492342 0.000000 0.000000 0.000000 -2.562777 -3.025419 -0.516564 -2.568900 18.287068 -3.131431 -2.748528 -0.488100 -1.044092 0.000000 0.000000 0.000000 
96.492000 107.273000 1070.848020 -4.263836 4.230664 1.973532 1.343661 7.074167 0.047933 0.070890 -0.999317 0.061866 -0.075974 1.396315 0.103737 0.592247 -4.063267 -1.392401 0.000000 0.000000 0.000000 2.986501 -1.438109 -1.631203 -1.327820 -0.904950 -4.626381 -0.537533 -6.672459 -2.809474 0.000000 0.000000 0.000000 -2.109338 0.189767 0.508191 1.500865 0.797673 1.642846 2.057895 -2.340339 6.965609 0.000000 0.000000 0.000000 -2.697478 -28.738002 -4.664963 -0.541077 38.630979 -2.028456 -4.237802 -0.175444 -1.593107 0.000000 0.000000 0.000000 -2.479440 -3.178164 -0.356476 -2.515610 19.133886 -3.326938 -2.844756 0.316132 -1.229532 0.000000 0.000000 0.000000 
105.545000 104.903000 1071.262940 -4.418112 4.321539 2.000919 1.196023 6.919101 0.081714 0.201731 -0.980512 0.063896 0.081800 1.370952 0.098144 0.602502 -3.992015 -1.436775 0.000000 0.000000 0.000000 2.948962 -1.297956 -1.612276 -1.279281 -0.766829 -4.280964 -0.612713 -6.220926 -3.171142 0.000000 0.000000 0.000000 -2.096877 0.280105 0.520665 1.534062 0.887597 1.614476 2.077485 -2.506540 7.026798 0.000000 0.000000 0.000000 -2.651327 -28.222850 -4.638072 -1.176070 33.198241 -1.677125 -4.182042 -0.038208 -1.649182 0.000000 0.000000 0.000000 -2.385705 -3.315303 -0.215398 -2.468878 20.099852 -3.510051 -2.952260 1.070874 -1.409782 0.000000 0.000000 0.000000 
115.442000 102.284000 1071.319950 -4.591738 4.408437 1.997408 1.074103 6.623075 0.220083 0.337117 -0.924615 0.001711 0.250871 1.360960 0.091503 0.600982 -3.886717 -1.448485 0.000000 0.000000 0.000000 2.900752 -1.105494 -1.575663 -1.242535 -0.581625 -4.027696 -0.649605 -5.842664 -3.346392 0.000000 0.000000 0.000000 -2.076382 0.416043 0.503572 1.560628 1.025101 1.684040 2.029783 -2.662171 6.867967 0.000000 0.000000 0.000000 -2.641661 -27.364075 -4.566064 -1.823755 27.330054 -1.183141 -4.047321 -0.480231 -1.516665 0.000000 0.000000 0.000000 -2.245067 -3.409691 -0.056603 -2.387437 21.117131 -3.660049 -3.022444 1.756302 -1.560778 0.000000 0.000000 0.000000 
125.985000 99.374000 1070.980960 -4.638571 4.430447 2.045167 0.942938 6.347512 0.305584 0.430542 -0.903934 -0.035115 0.367146 1.355401 0.089005 0.592140 -3.764505 -1.439461 0.000000 0.000000 0.000000 2.845361 -0.870697 -1.539868 -1.210380 -0.356214 -3.811785 -0.661484 -5.506649 -3.398327 0.000000 0.000000 0.000000 -2.054730 0.586405 0.474838 1.580174 1.198236 1.818556 1.929254 -2.817803 6.535982 0.000000 0.000000 0.000000 -2.728702 -26.113902 -4.555567 -2.482966 20.924320 -0.524364 -3.889880 -0.734722 -1.408048 0.000000 0.000000 0.000000 -2.124521 -3.463482 0.052815 -2.333170 22.247967 -3.775006 -3.116057 2.431417 -1.718603 0.000000 0.000000 0.000000 
136.799000 96.151000 1069.673950 -4.471359 4.305920 2.209123 0.788354 6.238923 0.201556 0.450737 -0.955076 0.035698 0.388090 1.344613 0.093214 0.579681 -3.640129 -1.419498 0.000000 0.000000 0.000000 2.801681 -0.620145 -1.530143 -1.184305 -0.112186 -3.631547 -0.650962 -5.251031 -3.339834 0.000000 0.000000 0.000000 -2.038034 0.747222 0.443499 1.587934 1.362539 1.995985 1.801454 -2.919963 6.114662 0.000000 0.000000 0.000000 -2.983389 -24.814092 -4.610488 -3.142178 15.323087 0.000899 -3.933546 -0.306291 -1.538712 0.000000 0.000000 0.000000 -2.085130 -3.562576 0.076360 -2.359350 23.796338 -3.895902 -3.304968 2.991600 -1.891582 0.000000 0.000000 0.000000 
147.799000 92.627000 1067.250980 -4.288208 4.140202 2.356990 0.664054 6.081215 0.157641 0.463860 -0.958723 0.077610 0.406916 1.313067 0.093630 0.566732 -3.516802 -1.398520 0.000000 0.000000 0.000000 2.755872 -0.352484 -1.581687 -1.161424 0.152149 -3.467490 -0.611092 -5.101401 -3.139376 0.000000 0.000000 0.000000 -2.026913 0.895569 0.409864 1.582897 1.516211 2.240265 1.637518 -2.950582 5.573105 0.000000 0.000000 0.000000 -3.347331 -23.764919 -4.495722 -3.807835 11.068157 0.067676 -4.233876 0.061830 -1.750069 0.000000 0.000000 0.000000 -2.084580 -3.843489 0.156780 -2.421690 25.867908 -4.052234 -3.584610 3.376651 -2.064148 0.000000 0.000000 0.000000 
